<?xml version="1.0" encoding="UTF-8" standalone="no"?>
<!-- Created with Inkscape (http://www.inkscape.org/) -->

<svg
   version="1.1"
   id="svg48"
   width="1024"
   height="1536"
   viewBox="0 0 1024 1536"
   sodipodi:docname="ChatGPT Image Jun 5, 2025, 09_51_18 PM.png"
   inkscape:export-filename="ChatGPT Image Jun 5, 2025, 09_51_18 PM.svg"
   inkscape:export-xdpi="96"
   inkscape:export-ydpi="96"
   xmlns:inkscape="http://www.inkscape.org/namespaces/inkscape"
   xmlns:sodipodi="http://sodipodi.sourceforge.net/DTD/sodipodi-0.dtd"
   xmlns="http://www.w3.org/2000/svg"
   xmlns:svg="http://www.w3.org/2000/svg">
  <defs
     id="defs52" />
  <sodipodi:namedview
     id="namedview50"
     pagecolor="#ffffff"
     bordercolor="#000000"
     borderopacity="0.25"
     inkscape:showpageshadow="2"
     inkscape:pageopacity="0.0"
     inkscape:pagecheckerboard="0"
     inkscape:deskcolor="#d1d1d1"
     showgrid="false" />
  <g
     inkscape:groupmode="layer"
     inkscape:label="Image"
     id="g54">
    <path
       style="fill:#000000;stroke-width:0.995756"
       d="m 327.21022,1359.8529 c -40.92764,-2.1066 -69.48207,-5.2171 -100.95452,-10.9971 -7.38509,-1.3563 -13.79272,-2.8316 -14.23917,-3.2784 -2.13145,-2.1331 3.26966,-65.0275 9.26397,-107.876 1.63912,-11.7168 2.98151,-21.7921 2.98309,-22.3897 0.002,-0.6324 -5.0892,-1.8 -12.1813,-2.794 -13.65959,-1.9145 -35.80721,-6.7482 -44.23483,-9.6543 -3.05757,-1.0544 -5.6739,-1.917 -5.81406,-1.917 -0.14017,0 -1.39186,4.8224 -2.78154,10.7165 -7.56021,32.0653 -12.22887,66.1109 -14.86641,108.4115 l -1.181,18.9408 -5.17154,0.2996 c -6.55031,0.3794 -9.60216,-2.061 -8.83697,-7.0667 0.2692,-1.761 0.75833,-8.1364 1.08694,-14.1675 1.57654,-28.9347 7.62024,-76.6577 13.61927,-107.5426 2.97385,-15.31 3.01344,-15.8631 1.2084,-16.8755 -1.02643,-0.5757 -3.61686,-2.6836 -5.75653,-4.6839 l -3.89031,-3.6372 1.25926,-5.4062 c 2.42831,-10.4253 12.79023,-40.4363 18.90435,-54.7522 32.90305,-77.0408 71.46781,-121.622 121.63636,-140.61269 l 8.73638,-3.30705 -0.65037,-4.55115 c -2.30238,-16.11167 -12.29998,-48.5856 -20.06854,-65.18608 l -4.58318,-9.79371 -8.02085,0.65399 c -9.95706,0.81188 -19.80419,-1.09416 -29.1877,-5.64964 -9.601,-4.66106 -21.35018,-16.63813 -26.87071,-27.3919 -9.36562,-18.24387 -11.32467,-43.27316 -5.05096,-64.53258 l 2.02146,-6.85 -2.95728,-3.11886 c -3.78052,-3.98707 -7.72761,-11.91539 -9.8733,-19.83202 -1.25624,-4.63494 -1.67325,-10.14401 -1.64011,-21.66698 0.0414,-14.38046 0.78135,-20.18651 4.00214,-31.40193 0.6731,-2.34382 -12.36759,10.26246 -19.24401,18.60297 -5.46295,6.62608 -6.21595,6.24508 -6.22792,-3.15123 -0.0224,-17.56704 8.32413,-37.02362 23.23203,-54.15612 l 6.41447,-7.37166 -6.62868,1.38228 c -9.01734,1.88039 -21.08807,5.61995 -29.91153,9.26673 -4.02977,1.66552 -7.71287,3.02822 -8.18468,3.02822 -3.41367,0 3.30999,-15.15364 11.39796,-25.68847 15.59914,-20.31832 37.16512,-32.13096 58.66054,-32.13096 h 7.9367 l -3.6969,-2.51449 c -9.54147,-6.48973 -23.87899,-11.44192 -33.12652,-11.44192 -5.47586,0 -5.26279,-1.37305 0.858,-5.52902 10.76974,-7.31256 29.41107,-10.2825 41.65558,-6.63659 3.55579,1.05877 7.28436,2.27231 8.28571,2.69678 1.42937,0.60588 0.95988,-0.91817 -2.18461,-7.09158 -2.20289,-4.32483 -4.92146,-9.20911 -6.04125,-10.85398 -1.1198,-1.64486 -2.03894,-3.38265 -2.04254,-3.86177 -0.004,-0.47911 2.34325,-0.67565 5.21523,-0.43677 5.97904,0.49732 14.90968,4.37178 18.85448,8.17981 3.00767,2.90341 3.76876,3.17549 3.78297,1.35239 0.0232,-2.97525 5.04276,-11.64859 9.68573,-16.73606 l 5.03871,-5.52109 -3.32303,0.38883 c -2.85206,0.33372 -4.05479,-0.29666 -8.48605,-4.44778 -9.61978,-9.01161 -18.33009,-23.5022 -21.06592,-35.04557 -0.67529,-2.84928 -1.48167,-5.18051 -1.79195,-5.18051 -0.31028,0 -1.65427,5.15888 -2.98665,11.46419 -1.33237,6.30531 -2.73294,11.4642 -3.11238,11.4642 -1.25175,0 -7.50493,-8.38264 -10.05796,-13.48311 -5.45881,-10.90561 -7.17451,-18.85754 -7.17551,-33.25696 l -9.3e-4,-13.34437 -7.00841,14.58677 c -3.85463,8.02273 -7.48502,15.06446 -8.06755,15.64831 -1.57711,1.58069 -5.04045,-6.51313 -6.51044,-15.21483 -1.8441,-10.91639 -1.53901,-38.32046 0.5446,-48.91718 1.973,-10.03418 6.51181,-23.50082 10.77808,-31.97857 3.52141,-6.99757 3.35476,-6.91322 -10.68378,5.40817 -5.26513,4.62111 -9.97906,8.55155 -10.4754,8.73431 -2.50689,0.9231 0.47323,-15.99544 5.20955,-29.57523 1.65715,-4.75131 5.71634,-14.15121 9.02043,-20.88864 9.11634,-18.58937 16.68799,-29.50854 38.4598,-55.46338 1.7963,-2.14142 -5.07932,1.50578 -17.83787,9.46217 -11.13548,6.94422 -17.63389,10.06392 -18.39439,8.83061 -1.95753,-3.17454 3.83038,-17.18855 12.93845,-31.32733 8.50547,-13.20332 13.70166,-19.70726 25.33544,-31.71172 11.77095,-12.14598 20.84818,-19.46346 32.42943,-26.14251 6.7839,-3.91235 7.41945,-4.4928 4.43692,-4.05229 -1.91465,0.2828 -6.16668,0.78532 -9.44894,1.11671 -3.28227,0.3314 -11.2404,1.98152 -17.68474,3.66696 -6.44435,1.68544 -12.01948,2.76124 -12.38921,2.39067 -2.71183,-2.71799 15.19958,-20.7706 31.34287,-31.58993 23.57251,-15.79845 46.23315,-22.93779 68.35488,-21.53553 4.92339,0.31208 11.16865,1.25198 13.87835,2.08866 2.70969,0.83666 5.08933,1.35822 5.28809,1.15902 0.19876,-0.19921 -1.22834,-1.95554 -3.17133,-3.90295 -4.04512,-4.05431 -13.68551,-7.52052 -28.44236,-10.22646 -5.57861,-1.02293 -8.87769,-2.07684 -8.65626,-2.76529 0.57123,-1.77606 12.21191,-7.23449 19.44513,-9.118 9.92805,-2.58524 26.17696,-3.07192 35.22226,-1.05495 9.08142,2.02502 19.40496,6.89197 26.36232,12.42831 5.71267,4.54588 6.02745,4.20376 3.62013,-3.93449 -2.19828,-7.43153 -4.7897,-12.38357 -10.0065,-19.12178 l -4.43785,-5.7321 3.29853,0.0118 c 7.94166,0.0285 21.70294,5.46865 30.31126,11.98277 5.6592,4.28245 13.0818,13.98252 16.32812,21.33804 l 2.05438,4.65482 2.75099,-3.79121 c 3.79999,-5.23685 9.88831,-10.55849 18.60328,-16.26061 13.98285,-9.14886 19.25682,-9.01176 13.06198,0.33955 -6.35671,9.59567 -15.67632,29.88942 -14.34093,31.22785 0.21393,0.21442 3.00841,-0.29396 6.20993,-1.12975 7.42805,-1.93916 20.96404,-1.92446 29.27403,0.0318 12.76693,3.00546 32.91228,14.80352 36.21824,21.21108 l 1.49226,2.89226 -15.1254,0.55223 c -8.31897,0.30373 -16.40411,0.93906 -17.96696,1.41183 -2.77352,0.83902 -2.71334,0.90011 2.51332,2.55141 6.64013,2.09788 16.05312,7.68158 20.9021,12.39896 4.49738,4.37531 9.04597,12.77083 11.23294,20.73312 2.83189,10.31027 3.29322,43.36457 0.60522,43.36457 -0.43232,0 -3.79943,-5.15889 -7.48246,-11.4642 -3.68302,-6.30531 -6.84665,-11.4642 -7.03029,-11.4642 -0.18365,0 -0.0809,4.25048 0.22835,9.44552 1.0073,16.92207 -2.45979,34.156 -11.14937,55.42048 -23.50471,57.51891 -71.38724,119.155 -127.55951,164.19915 -7.23893,5.80484 -13.02785,10.68839 -12.86426,10.85234 0.16358,0.16396 1.78135,-0.12846 3.59505,-0.6498 4.80913,-1.38238 36.4872,-5.82311 49.78309,-6.97875 16.80693,-1.46082 50.44203,-1.24257 63.69385,0.41328 42.38599,5.29625 79.03711,20.52211 90.87757,37.753 3.62958,5.28199 6.55795,12.94324 6.55795,17.15706 0,1.85527 1.01527,2.45941 6.71372,3.99496 3.69255,0.99502 10.96575,3.9791 16.16267,6.63128 9.30415,4.74825 23.83617,15.08973 24.62688,17.52533 0.30818,0.94931 -2.39877,1.2475 -11.3652,1.25199 -10.07196,0.005 -30.69744,2.18392 -31.87851,3.36766 -0.20936,0.20986 1.96105,1.8257 4.82315,3.59078 10.75256,6.63116 23.21756,21.17729 29.21844,34.09672 2.56137,5.51441 3.28724,11.77395 1.36533,11.77395 -0.61224,0 -3.63342,-1.52836 -6.71372,-3.39634 -11.84235,-7.18157 -53.2673,-26.41956 -54.41406,-25.27021 -0.14483,0.14516 0.59294,3.85077 1.63949,8.2347 4.13418,17.31778 5.29127,29.78329 5.32033,57.31665 0.0276,26.16421 -1.23791,45.14078 -3.98888,59.8132 -1.66513,8.8811 -1.66964,8.97198 -0.44484,8.97198 3.28491,0 12.64009,4.78272 16.94736,8.66413 8.07753,7.27889 9.44753,10.72841 9.44753,23.78772 0,10.73921 -0.0954,11.2122 -3.75951,18.64161 -4.87257,9.87966 -13.17331,18.3129 -22.75325,23.11645 -3.89096,1.95099 -7.6857,3.54725 -8.43278,3.54725 -1.10494,0 -1.3583,3.91213 -1.3583,20.97391 0,23.43292 -0.96831,34.6773 -4.51711,52.454 -4.25724,21.32549 -9.71543,35.67614 -18.98276,49.90932 -5.2301,8.03262 -20.30548,22.87216 -29.28404,28.82586 l -7.52843,4.9921 7.20379,4.1388 c 30.13451,17.3132 56.8221,46.8573 83.47856,92.4137 11.62098,19.8604 23.33978,43.0748 23.33978,46.2349 0,1.6744 -1.52429,4.0951 -4.45943,7.0819 l -4.45943,4.5378 4.33596,6.6156 c 2.38477,3.6387 5.60426,8.341 7.15442,10.4498 1.55015,2.1087 2.93765,4.0101 3.08331,4.2253 0.87141,1.2874 22.88908,-22.9595 32.3268,-35.5997 8.75551,-11.7266 22.61048,-32.91 23.2841,-35.6 0.28104,-1.1222 -0.44251,-4.2663 -1.60789,-6.9868 -6.33773,-14.795 -7.94181,-36.7031 -3.89646,-53.2169 2.57024,-10.4922 10.44366,-26.8968 19.84703,-41.3522 12.03065,-18.49428 15.89716,-28.18454 15.89716,-39.84162 0,-5.19654 -0.20028,-5.6664 -3.04329,-7.13993 -1.67381,-0.86753 -4.69499,-3.05932 -6.71373,-4.87067 -3.40972,-3.05941 -4.28191,-3.33039 -12.27945,-3.81495 -19.72402,-1.19508 -32.97709,-13.56217 -34.37412,-32.0762 -0.57489,-7.61852 1.30979,-16.6557 4.48643,-21.5128 1.25781,-1.92317 1.56457,-4.43215 1.34352,-10.9885 -0.22743,-6.74585 0.1524,-9.67185 1.84361,-14.2023 2.54148,-6.80812 9.95542,-15.34836 16.21228,-18.67516 3.67654,-1.95484 4.81649,-3.3342 7.10311,-8.59493 4.67335,-10.75177 16.41903,-19.14808 28.15159,-20.12395 4.59656,-0.38233 5.45271,-0.81694 7.20394,-3.65692 3.35761,-5.4451 11.66743,-12.45436 18.64513,-15.72705 5.67908,-2.66361 8.16746,-3.19898 17.13077,-3.68576 10.15313,-0.55138 10.64832,-0.68786 15.57384,-4.29222 12.37051,-9.05241 28.44639,-10.51406 42.65476,-3.87828 l 5.96776,2.78716 5.44123,-2.48178 c 10.55231,-4.81297 23.53689,-3.24553 37.67855,4.54835 5.72733,3.15651 7.12347,3.49803 14.91938,3.64965 7.32325,0.14241 9.46036,0.59986 14.38801,3.07978 6.61764,3.33043 16.14259,12.91974 18.87088,18.99842 1.35762,3.02477 2.78367,4.38507 5.99079,5.71457 5.65748,2.34527 13.5833,9.45336 18.03321,16.17267 4.90539,7.40708 7.51422,15.40089 7.51422,23.02456 0,5.10787 0.42871,6.76113 2.35064,9.06513 8.69799,10.42707 10.48451,25.6438 4.57935,39.0048 -1.80765,4.08998 -1.92339,5.21458 -0.91057,8.84849 0.63815,2.28966 0.99839,7.67285 0.80053,11.96264 -0.40216,8.71953 -3.41933,16.26789 -8.76577,21.93029 -2.91439,3.08661 -2.95188,3.25229 -1.51587,6.69697 4.77638,11.45747 -0.89439,35.36194 -14.92413,62.91084 -33.4939,65.769 -88.47489,115.4951 -138.35583,125.1322 l -6.05586,1.1701 -8.06201,11.6153 c -20.5426,29.5969 -43.22298,54.6884 -70.5497,78.0497 -33.84595,28.9347 -59.7541,41.3234 -82.34145,39.374 -19.38341,-1.6729 -43.82111,-13.9298 -70.61843,-35.4195 l -9.94626,-7.9762 -0.30806,14.6505 c -0.28512,13.5597 0.98951,47.1075 2.44597,64.3765 l 0.61989,7.35 -5.75642,2.1587 c -19.51884,7.3195 -57.77712,13.9014 -101.93439,17.5365 -17.61003,1.4498 -72.42599,2.6376 -87.02975,1.8859 z m 295.26608,-82.2676 c 7.92555,-2.676 16.52742,-7.1084 25.27938,-13.0261 23.82977,-16.1125 56.94907,-48.0403 78.91285,-76.0739 6.06538,-7.7415 17.78718,-24.1728 17.78718,-24.9334 0,-0.268 -1.13333,-0.4872 -2.51851,-0.4872 -1.38518,0 -4.07067,-0.65 -5.96775,-1.4445 -2.58974,-1.0845 -3.44925,-2.0461 -3.44925,-3.8587 0,-2.3038 0.37576,-2.446 8.20566,-3.1031 18.4407,-1.5479 38.6334,-7.0499 53.65505,-14.6198 34.29441,-17.2821 69.45565,-54.3054 94.19721,-99.1858 13.1666,-23.8838 21.33435,-48.96388 18.42263,-56.56895 -0.49687,-1.29778 -0.99571,-1.25341 -3.72985,0.33177 -1.73595,1.00646 -5.08488,2.39576 -7.44209,3.08735 -2.35721,0.69159 -4.72651,2.08274 -5.26513,3.09144 -0.53861,1.00869 -3.03614,4.15514 -5.55004,6.9921 -2.5139,2.83699 -5.63866,7.57839 -6.9439,10.53639 -3.56766,8.0855 -16.64515,29.4607 -24.22839,39.6014 -9.05393,12.1074 -20.43731,25.0392 -26.57443,30.1892 l -5.04842,4.2364 -12.27516,-4.5971 c -6.75133,-2.5285 -18.98888,-6.9688 -27.19454,-9.8675 -8.20566,-2.8986 -19.2345,-7.0757 -24.50853,-9.2823 -12.22548,-5.115 -23.99455,-8.7069 -34.52591,-10.5373 -4.56968,-0.7943 -8.6862,-1.8239 -9.14782,-2.2881 -0.46161,-0.4642 1.81622,-6.6757 5.06185,-13.8035 11.21385,-24.6267 11.56536,-38.87723 1.27772,-51.79991 -2.66105,-3.34264 -3.12424,-3.52719 -8.8523,-3.52722 l -6.04432,-3e-5 -1.25336,8.22431 c -1.73998,11.41739 -5.86155,21.45615 -13.87484,33.79445 -19.93868,30.7002 -24.85703,43.9987 -23.69143,64.058 0.67869,11.6799 2.51032,19.1228 7.2298,29.3788 l 3.38483,7.3555 -3.65374,6.1023 c -6.07312,10.1433 -20.86056,32.19 -27.1084,40.4161 -16.64851,21.9202 -45.80921,49.9233 -51.98687,49.9233 -1.6802,0 -1.89139,-0.4366 -1.3259,-2.7414 0.36994,-1.5078 1.30205,-4.0208 2.07136,-5.5844 1.37266,-2.79 1.22315,-3.0842 -8.0232,-15.7872 -5.18206,-7.1193 -9.78026,-13.586 -10.21825,-14.3703 -0.64262,-1.1509 -2.30595,-0.5639 -8.6175,3.041 -13.91118,7.9457 -41.22402,18.9184 -42.90271,17.2359 -0.35132,-0.3521 -1.01658,-6.1568 -1.47833,-12.8992 -1.6821,-24.5617 -2.17761,-28.6001 -3.03317,-24.72 -1.32049,5.9884 -2.84266,34.5786 -2.84749,53.4826 l -0.005,18.0931 5.7191,5.2556 c 23.45709,21.5561 53.66758,39.4501 72.18232,42.7544 7.067,1.2612 18.80389,0.3212 25.89921,-2.0745 z m 77.16152,-149.5235 c -0.72755,-1.3625 -0.90803,-4.0212 -0.48826,-7.1928 2.12763,-16.0752 18.33023,-31.7401 38.34377,-37.0712 6.8412,-1.8224 19.87435,-1.9445 22.24311,-0.2085 2.85277,2.0908 0.92889,4.4857 -4.93219,6.1397 -2.96279,0.8362 -7.78196,2.1961 -10.70926,3.0218 -2.92731,0.8258 -8.91403,3.3033 -13.30383,5.5054 -9.46243,4.7469 -18.874,14.0549 -24.61525,24.3446 -4.31855,7.7398 -5.01199,8.319 -6.53809,5.461 z m -445.91108,80.5745 c 0.34014,-0.3409 1.01724,-6.5844 1.50467,-13.8746 0.48742,-7.29 1.77617,-22.6986 2.86389,-34.2413 1.08773,-11.5428 1.94579,-24.3279 1.90682,-28.4113 l -0.0708,-7.4245 -1.8857,6.4797 c -1.65604,5.6907 -15.60067,64.7104 -17.40013,73.6449 -0.4722,2.3446 -0.2685,3.6423 0.672,4.281 1.42428,0.9671 11.35379,0.604 12.40931,-0.4539 z m 226.8838,-6.3226 c 3.33462,-2.0847 5.52458,-7.0242 4.80903,-10.8471 -0.71112,-3.7992 -4.76652,-8.2331 -8.35639,-9.1361 -5.02799,-1.2648 -11.3016,4.7957 -11.3016,10.9175 0,9.5731 7.10185,13.909 14.84896,9.0657 z m -182.71717,-0.9338 c 0.53351,-1.4064 0.97001,-11.4693 0.97001,-22.362 v -19.805 l 2.88876,-2.0616 c 6.1093,-4.3601 12.1629,-1.334 13.93935,6.9682 0.59134,2.7636 1.07516,12.8531 1.07516,22.4211 v 17.3965 h 8.41932 c 7.62312,0 8.52864,-0.2048 9.57527,-2.1649 1.48624,-2.7834 0.65318,-42.9301 -1.04551,-50.3844 -0.65137,-2.8585 -2.16141,-6.6716 -3.35563,-8.4736 -2.73923,-4.1332 -9.80713,-7.769 -15.04749,-7.7404 -4.21521,0.023 -11.65091,2.913 -14.76715,5.7396 -1.77438,1.6095 -1.81662,1.3529 -1.28091,-7.7807 2.1908,-37.3513 2.34611,-36.3873 -5.70208,-35.3914 -9.42724,1.1667 -15.40978,2.6127 -15.79783,3.8184 -0.48806,1.5167 0.98729,66.1129 1.96241,85.9216 l 0.73576,14.9461 2.98387,0.6369 c 1.64114,0.3503 5.34476,0.6899 8.23028,0.7548 4.76608,0.1072 5.33521,-0.1161 6.21641,-2.4392 z m 72.45209,-0.9319 c 2.11929,-1.919 4.10497,-3.4891 4.41262,-3.4891 0.30765,0 0.70098,1.2336 0.87408,2.7414 0.30787,2.6818 0.47349,2.7478 7.61776,3.0362 4.1303,0.1667 7.85381,-0.1634 8.57082,-0.7598 0.99785,-0.83 1.16555,-7.8972 0.78764,-33.1921 -0.26408,-17.6756 -0.76409,-32.413 -1.11113,-32.7499 -0.71176,-0.6909 -15.94343,0.6741 -16.77034,1.5029 -0.29376,0.2945 -0.45118,10.5802 -0.34981,22.8571 l 0.18431,22.3216 -2.93019,1.2165 c -4.64522,1.9285 -8.37809,1.0305 -10.01607,-2.4093 -1.20637,-2.5336 -1.23506,-5.7132 -0.19359,-21.4529 0.86628,-13.0921 0.91743,-19.2832 0.17549,-21.2391 -1.04686,-2.7598 -1.04995,-2.7606 -9.76001,-2.4725 l -8.71281,0.2882 -0.30824,23.9253 c -0.34029,26.413 0.40945,32.583 4.55999,37.5269 3.40578,4.0567 7.46523,5.7505 13.8973,5.7987 4.59438,0.034 5.68004,-0.3785 9.07218,-3.4501 z m 47.30465,1.9226 c 1.32097,-1.324 1.56299,-4.7859 1.56299,-22.3576 v -20.7911 l 2.6207,-2.0661 c 3.66982,-2.8933 8.3883,-2.6842 11.37934,0.5042 2.37824,2.5353 2.41565,2.8704 2.72986,24.4616 l 0.31859,21.891 8.63304,-0.287 8.63305,-0.287 0.26762,-22.1534 c 0.38273,-31.6833 -1.69292,-39.9473 -11.1101,-44.2338 -2.2423,-1.0207 -5.54591,-1.8656 -7.34138,-1.8776 -3.63473,-0.025 -9.69256,2.233 -12.27279,4.5734 -1.58064,1.4338 -1.65101,0.1715 -1.13309,-20.3245 0.42382,-16.7717 0.26625,-22.0303 -0.67761,-22.615 -1.00125,-0.6202 -19.64992,1.2066 -20.77099,2.0347 -0.51523,0.3806 0.0116,64.8863 0.69558,85.1569 l 0.62223,18.4424 3.9785,0.6062 c 7.16304,1.0914 10.27703,0.9137 11.86446,-0.6773 z m 56.85906,-30.8192 c 4.25097,-0.8151 8.08793,-2.0488 8.52658,-2.7414 0.43866,-0.6927 0.80442,-3.3792 0.81279,-5.9702 0.0145,-4.4906 0.38853,-5.1203 7.99333,-13.458 4.38795,-4.8108 9.13891,-11.0998 10.55767,-13.9753 3.01401,-6.1088 4.10197,-15.7222 2.46523,-21.7833 -3.71575,-13.7599 -19.75748,-21.4588 -35.28543,-16.9344 -7.2478,2.1118 -12.5686,7.2668 -15.44016,14.9593 -3.48652,9.3396 -3.24279,9.925 5.1076,12.2662 6.46814,1.8135 7.3135,1.8618 8.20566,0.4687 0.54705,-0.8541 2.39437,-3.132 4.10516,-5.0619 3.79068,-4.276 9.02275,-4.8502 12.49404,-1.3711 4.8013,4.8123 2.04948,14.0492 -7.37402,24.7523 -6.26705,7.1181 -7.61466,9.6099 -9.77456,18.0743 -2.10921,8.2656 -2.44464,12.257 -1.03005,12.257 0.49892,0 4.38519,-0.667 8.63616,-1.4822 z m 350.90611,-109.2101 c 9.6388,-10.2408 17.76364,-20.7355 27.14694,-35.065 10.51808,-16.0625 10.42148,-15.8102 5.60198,-14.6299 -2.09129,0.5121 -7.61234,0.9437 -12.269,0.959 l -8.46665,0.028 -5.18577,10.2229 c -6.224,12.2696 -14.84933,25.4202 -22.05133,33.6207 -2.90463,3.3074 -5.1203,6.1698 -4.9237,6.3609 0.44124,0.4291 12.05407,5.3127 12.91844,5.4327 0.34402,0.048 3.59712,-3.0703 7.22909,-6.9292 z m -25.13582,-11.1771 c 5.73216,-8.9128 18.70263,-33.3815 18.74629,-35.3648 0.0198,-0.9001 -0.64429,-0.9657 -2.52442,-0.2492 -1.40322,0.5347 -5.09655,0.9722 -8.20738,0.9722 h -5.65604 l -2.48487,4.7075 c -6.62352,12.548 -13.344,20.8807 -21.7812,27.0065 l -3.92491,2.8497 9.62138,4.0335 c 5.29176,2.2184 9.91396,4.0865 10.27157,4.1512 0.35761,0.065 3.03042,-3.5832 5.93958,-8.1066 z m -31.87393,-9.9814 c 7.20845,-8.2633 13.53657,-17.3061 16.89385,-24.1412 l 3.09897,-6.3092 -3.81941,-3.601 c -2.92277,-2.7557 -4.40312,-3.4774 -6.30595,-3.0744 -1.36761,0.2897 -5.8657,0.8035 -9.99575,1.1419 -8.01148,0.6564 -15.50996,-0.8854 -23.04562,-4.7385 l -3.75979,-1.92248 -0.0118,5.75238 c -0.0187,9.0955 -4.37486,22.3506 -9.9023,30.1308 -1.11177,1.5649 -2.0214,3.0602 -2.0214,3.3229 0,0.2627 2.79738,0.7833 6.21641,1.1569 3.41902,0.3737 10.69222,2.1775 16.16266,4.0087 5.47045,1.8311 10.39384,3.3664 10.94089,3.4118 0.54704,0.045 3.0442,-2.267 5.54924,-5.1386 z m -393.27659,1.1918 c 4.27917,-0.585 10.24202,-1.7643 13.25076,-2.6207 7.92579,-2.2558 21.13708,-9.3689 19.81991,-10.6713 -0.23359,-0.231 -3.33399,-1.1729 -6.88978,-2.0932 -3.55578,-0.9203 -7.02454,-2.1367 -7.70835,-2.7031 -1.37426,-1.1383 -1.67718,-4.3868 -0.47832,-5.1294 0.42072,-0.2606 8.57394,-0.9842 18.11826,-1.608 18.36966,-1.2005 36.24084,-3.8441 44.3539,-6.561 18.99694,-6.3617 34.81988,-16.86871 47.94536,-31.83732 6.33584,-7.22553 16.07137,-26.42688 19.14458,-37.75876 5.13842,-18.9469 8.87959,-54.04581 7.50547,-70.41487 l -0.71133,-8.47353 -18.58065,-0.0199 c -17.55829,-0.0188 -19.02277,-0.16907 -26.61566,-2.73077 -9.40917,-3.17449 -18.28302,-8.6614 -23.60422,-14.59505 -6.72981,-7.50438 -2.79819,-9.0224 9.57376,-3.69647 13.66003,5.88044 23.87032,7.88744 40.46603,7.95428 16.93267,0.0682 22.72666,-1.17826 36.40929,-7.83268 10.8517,-5.27761 17.97534,-12.32756 21.20879,-20.98936 6.23778,-16.70989 -2.0832,-28.38282 -20.21937,-28.36438 -6.05625,0.006 -10.06823,1.20169 -36.90139,10.99626 -16.03613,5.85346 -35.44214,5.19977 -43.79438,-1.47521 l -2.82865,-2.26061 -4.1149,5.58789 c -7.22973,9.81771 -18.72157,17.64029 -30.27137,20.60594 -4.55686,1.17007 -9.3101,1.53468 -16.51973,1.26718 -9.55812,-0.35461 -10.59854,-0.61217 -18.67358,-4.6226 -20.28697,-10.07541 -31.96518,-29.08878 -33.18594,-54.03027 -0.62175,-12.7029 1.07816,-21.07455 6.30278,-31.03961 10.01472,-19.10138 27.23322,-29.77047 48.04559,-29.77047 15.36285,0 27.58557,5.47408 38.68227,17.32428 l 5.30889,5.66937 6.34137,-5.94552 c 11.04291,-10.35358 23.12403,-14.65245 38.85952,-13.8275 7.92009,0.41521 10.30331,0.97381 15.86689,3.71896 7.36989,3.63644 16.99208,12.46908 20.00971,18.36783 l 1.98202,3.87437 0.65474,-7.7631 c 1.51753,-17.99313 0.25571,-45.07709 -2.90207,-62.29105 -1.97436,-10.76271 -7.26821,-26.91594 -8.8211,-26.91594 -0.6522,0 -3.39306,0.64198 -6.09081,1.42661 -5.92731,1.72394 -19.68902,4.2695 -27.55213,5.09643 l -5.7385,0.6035 3.74925,4.29918 c 7.9512,9.11748 13.60483,21.47154 9.8261,21.47154 -0.89733,0 -4.64583,-2.16573 -8.32999,-4.81274 -10.09809,-7.25527 -12.75793,-8.6753 -25.6587,-13.69863 -6.53026,-2.54275 -12.41858,-4.84368 -13.08516,-5.11316 -0.72386,-0.29263 -0.22314,1.94906 1.24328,5.56616 2.46471,6.07945 3.2365,12.07705 1.55412,12.07705 -0.49562,0 -4.85955,-2.33921 -9.6976,-5.19824 -23.4063,-13.83189 -49.51873,-22.64763 -77.42565,-26.13944 -40.87319,-5.11419 -55.80709,-8.02167 -71.38216,-13.89744 -12.89862,-4.86607 -21.63717,-11.85701 -23.08616,-18.4692 -2.53927,-11.58753 19.80251,-22.70982 67.35619,-33.53155 28.87969,-6.57213 52.55785,-9.81873 79.64743,-10.92078 7.75754,-0.31558 17.1062,-0.77316 20.77479,-1.01684 16.11246,-1.07022 46.61565,3.00962 64.25637,8.59436 40.09692,12.69397 44.13106,27.43118 13.11934,47.92646 -4.64988,3.07305 -11.58739,7.2348 -15.4167,9.24833 -6.36165,3.34508 -6.62973,3.60632 -3.10702,3.0277 15.06655,-2.47474 32.5651,-9.97873 40.74745,-17.47394 16.52118,-15.13374 11.35693,-30.18675 -14.70791,-42.87137 -26.99484,-13.13722 -53.89413,-17.69536 -98.02676,-16.61084 -37.68859,0.92616 -57.95065,4.14609 -101.84739,16.18503 -43.37709,11.8964 -49.09304,14.17199 -58.3133,23.21523 -7.26016,7.12078 -8.79025,11.67395 -6.52713,19.42314 2.58714,8.85874 9.19523,15.13405 23.24473,22.07418 8.3183,4.10905 22.8642,8.81194 34.56765,11.17622 11.17162,2.25682 42.84334,2.53925 53.98731,0.48141 4.0018,-0.73896 7.51142,-1.10761 7.79917,-0.81921 1.49089,1.49429 -1.35617,4.75999 -6.58496,7.55323 -9.65696,5.15881 -19.37485,7.21509 -36.83702,7.79463 -15.94915,0.52932 -28.69962,-0.95721 -36.60447,-4.26757 -2.52997,-1.05949 -3.25133,-1.10508 -2.84923,-0.18007 5.21493,11.99691 11.03548,27.37864 12.14603,32.09781 2.11675,8.9949 1.85893,23.47112 -0.41801,23.47112 -0.36189,0 -5.1255,-4.4076 -10.58582,-9.79468 -6.76398,-6.67322 -12.06743,-10.92545 -16.64158,-13.34294 -3.69254,-1.95157 -6.71372,-3.37826 -6.71372,-3.17045 0,0.20781 2.68455,4.00672 5.96568,8.44202 8.02285,10.84503 12.45283,19.01041 16.5555,30.51529 8.77395,24.60424 9.82302,58.80544 2.46036,80.21141 -3.23446,9.40376 -8.45678,19.12434 -12.62688,23.50303 -3.26445,3.42776 -4.73594,4.2596 -7.53497,4.2596 -4.45777,0 -6.00467,-1.7379 -13.30991,-14.9533 -4.02989,-7.29018 -7.7706,-12.4535 -12.32406,-17.01094 -8.45378,-8.46117 -14.17554,-11.25805 -23.9981,-11.73066 -9.31727,-0.44829 -14.65884,1.75853 -21.1865,8.75299 -9.08098,9.73037 -12.93893,21.3326 -12.94477,38.92946 -0.006,18.19003 4.72929,32.13927 14.38331,42.37018 8.74973,9.27258 20.95051,14.10857 33.24372,13.17672 8.64,-0.65493 12.39884,-2.17012 22.84549,-9.20909 8.28837,-5.58471 9.87255,-6.22837 10.96577,-4.45548 1.15989,1.88102 -2.49301,11.79469 -6.08283,16.50831 l -3.56998,4.68756 6.01367,15.11856 c 10.42466,26.20788 14.91941,45.43863 17.513,74.92905 2.06275,23.45457 4.70561,31.11417 14.0297,40.66107 13.42902,13.75 36.59452,19.9329 61.78137,16.4894 z m 9.27226,-44.32782 c -20.97843,-5.89246 -32.2201,-25.68357 -27.44414,-48.31578 5.01312,-23.75602 24.9828,-48.02773 49.82321,-60.55653 12.61897,-6.36464 21.48175,-8.4652 37.90999,-8.98503 18.19277,-0.57565 27.72994,1.0328 39.86664,6.72354 9.86567,4.62587 16.82313,10.88409 20.76195,18.67529 3.97722,7.86718 4.65067,21.77455 1.54677,31.94186 -5.44894,17.84882 -19.34829,32.73321 -40.55455,43.4286 -8.74046,4.40826 -26.88371,10.77025 -42.12485,14.77122 -14.24609,3.73976 -31.20339,4.72725 -39.78502,2.31683 z m 31.25843,-16.70206 c 10.20515,-2.42315 23.92514,-8.98399 26.68189,-12.75918 1.0356,-1.41819 2.13117,-4.43371 2.43461,-6.70115 0.49578,-3.70475 0.21115,-4.46297 -2.80807,-7.48027 -5.27888,-5.27553 -13.37687,-7.8664 -26.23615,-8.39399 -16.11281,-0.66108 -30.65511,3.11845 -41.34035,10.7443 -2.67955,1.91235 -2.9205,2.58154 -2.9205,8.11124 0,17.29901 15.84669,23.20864 44.18857,16.47905 z M 239.42095,863.74953 c -3.36082,-3.58815 -6.15738,-10.82267 -6.18102,-15.98991 -0.0365,-7.98152 4.36582,-14.52149 11.87295,-17.63812 1.66352,-0.69061 3.02459,-1.65937 3.02459,-2.15279 0,-0.49342 -2.37514,-3.35488 -5.27808,-6.35882 -4.66503,-4.82733 -5.73363,-5.45759 -9.20029,-5.42637 -2.15721,0.0194 -5.04116,0.67643 -6.40877,1.46 -1.36761,0.78357 -3.49362,1.44058 -4.72447,1.46 -3.5792,0.0565 -2.95931,-4.29615 1.04816,-7.35975 10.80321,-8.25873 21.10008,-7.20581 30.70629,3.13993 10.73588,11.56239 18.22262,34.68529 12.81772,39.58777 -2.51343,2.2798 -3.3439,1.64713 -7.09371,-5.40422 -4.23426,-7.96234 -6.16699,-9.64569 -9.38661,-8.1754 -4.48731,2.0492 -6.63149,6.85721 -6.08136,13.63648 0.26696,3.28972 0.79102,7.21496 1.16457,8.72275 0.60158,2.42815 0.40159,2.74144 -1.74994,2.74144 -1.33602,0 -3.37454,-1.00935 -4.53003,-2.24299 z M 363.51405,706.3921 c 0,-8.00848 11.58754,-19.57797 24.86018,-24.82144 15.82043,-6.25002 37.91224,-3.85412 43.52887,4.72079 1.31619,2.00943 1.28634,2.29799 -0.30084,2.90842 -0.96909,0.37272 -4.29194,0.15394 -7.38411,-0.48619 -9.79959,-2.02868 -22.07456,-1.4937 -30.45972,1.3275 -8.51282,2.86416 -12.16819,5.03398 -21.62371,12.83579 -3.73782,3.0841 -7.20658,5.60746 -7.70834,5.60746 -0.50178,0 -0.91233,-0.94155 -0.91233,-2.09233 z m 162.28821,-7.92622 c -12.64776,-8.23703 -23.84889,-11.06537 -35.91368,-9.06839 -3.79791,0.62864 -7.37857,1.14298 -7.957,1.14298 -2.0145,0 -1.03209,-2.82995 1.81633,-5.23219 7.05554,-5.95033 22.15685,-6.38874 33.15411,-0.96251 6.64692,3.27971 15.12494,10.7884 16.27239,14.41188 1.22025,3.85343 -1.15142,3.75957 -7.37215,-0.29177 z m 291.32926,302.49482 c 2.97127,-0.8829 7.07562,-2.45951 9.12077,-3.50354 3.68188,-1.87957 3.77973,-1.87748 9.94626,0.21366 8.7607,2.97078 19.97432,2.35978 27.49567,-1.49829 7.17006,-3.67788 14.50071,-10.72283 17.05725,-16.39248 1.9926,-4.41895 2.28723,-4.6402 6.3911,-4.7994 9.20439,-0.35702 23.14879,-9.94045 27.27947,-18.74807 2.72735,-5.81538 2.70519,-12.76068 -0.062,-19.43445 -1.71339,-4.13223 -1.92306,-5.56596 -1.0035,-6.86193 7.34696,-10.35441 8.67827,-20.09574 3.86861,-28.30714 -1.52615,-2.60556 -4.03961,-5.67459 -5.58544,-6.82008 -2.79142,-2.06847 -2.80724,-2.14259 -2.31263,-10.83697 0.44634,-7.84582 0.23827,-9.32289 -2.00509,-14.23417 -4.6337,-10.14426 -13.78978,-17.70173 -21.44617,-17.70173 -2.11607,0 -3.16717,-0.48385 -3.16717,-1.45794 0,-4.03498 -4.49942,-12.90109 -8.77874,-17.29849 -6.09794,-6.26623 -11.7919,-8.03886 -20.21857,-6.29441 -5.76293,1.19303 -5.88908,1.16997 -10.32057,-1.8859 -2.46747,-1.70152 -7.40232,-4.46134 -10.96631,-6.13293 -5.65141,-2.65062 -7.33637,-2.99075 -13.17742,-2.65995 -6.41189,0.36313 -9.86885,1.76554 -17.1723,6.96644 -1.24407,0.88591 -2.49648,0.39617 -6.1659,-2.41113 -8.91389,-6.81959 -21.05936,-8.81064 -29.88273,-4.89877 -2.56482,1.13712 -7.06735,4.3463 -10.00563,7.13152 -4.87253,4.61871 -5.57785,4.97425 -8.021,4.04326 -4.05063,-1.54355 -15.52591,-1.2235 -20.80789,0.58035 -6.45254,2.20359 -14.70591,9.98023 -17.62299,16.60505 l -2.32876,5.28871 -6.30094,-0.40212 c -13.40568,-0.85555 -23.2056,6.40625 -24.96796,18.50141 -0.61955,4.25199 -0.8196,4.46466 -5.78154,6.14627 -2.82687,0.95804 -6.69739,2.93264 -8.60115,4.388 -6.91093,5.28321 -9.52281,15.89647 -6.05178,24.59114 1.58764,3.97692 1.58376,3.99729 -1.50436,7.90523 -7.86352,9.95107 -7.94573,22.37552 -0.19942,30.13944 6.37056,6.38505 19.30276,8.55458 22.30181,3.7414 1.82843,-2.93443 3.24061,-2.27422 7.83924,3.66495 2.35707,3.04417 6.27944,6.86716 8.7164,8.49554 8.47434,5.66258 20.26189,7.4628 28.88914,4.41202 5.13511,-1.81589 4.97313,-1.81173 4.97313,-0.12791 0,2.31579 9.37968,15.87155 13.63219,19.7016 9.11341,8.20802 16.90626,11.10867 28.60178,10.64612 l 7.9194,-0.31321 -7.61701,-3.76617 c -8.47894,-4.19235 -13.69112,-9.40796 -15.52177,-15.53201 -2.56954,-8.59585 -1.00448,-9.15212 6.2915,-2.23621 12.51866,11.86655 31.15672,16.26261 47.33033,11.16357 7.94603,-2.50512 17.60445,-8.59302 21.26586,-13.40427 l 2.70463,-3.55402 3.79636,2.51802 c 8.65962,5.74368 18.8781,6.77446 28.35777,2.86054 7.52847,-3.10832 8.78688,-3.14487 7.92546,-0.23018 -1.17061,3.96088 -6.01492,9.14346 -10.90357,11.66497 -6.3225,3.26106 -15.78913,3.36006 -22.74594,0.23787 l -4.83691,-2.17079 -3.01323,2.54124 c -1.65728,1.39767 -5.25941,3.68204 -8.00475,5.07636 -5.4172,2.75135 -22.07387,7.32329 -26.68046,7.32329 -1.57099,0 -2.85634,0.366 -2.85634,0.81332 0,1.86064 13.40566,7.89677 17.97139,8.09197 0.85804,0.037 3.99111,-0.6557 6.96238,-1.5386 z m -27.59521,-36.71452 c -6.36431,-1.99453 -10.62209,-5.05291 -13.0418,-9.36801 -2.25167,-4.01539 -2.99761,-11.51366 -1.25292,-12.59438 0.52091,-0.32267 2.81585,1.44527 5.09987,3.92878 6.01591,6.54134 15.34748,10.88133 24.37917,11.33845 6.37247,0.32252 7.07835,0.55771 6.6461,2.21436 -0.69849,2.67711 -8.07122,5.92768 -13.2666,5.84911 -2.42575,-0.0367 -6.27947,-0.65242 -8.56382,-1.36831 z m 81.73418,-7.99926 c -4.25394,-1.55021 -9.11828,-6.27652 -7.77469,-7.55408 0.44678,-0.42481 4.69049,-0.92577 9.43048,-1.11322 7.70913,-0.30489 9.07218,-0.66072 12.92249,-3.37353 2.36739,-1.66798 6.01097,-5.48107 8.09686,-8.47353 2.08589,-2.99247 4.32723,-5.44085 4.98077,-5.44085 3.48718,0 0.50388,12.85587 -4.34424,18.72055 -5.74676,6.95176 -15.65226,10.02588 -23.31167,7.23466 z m -138.29952,-6.84099 c -8.56926,-3.30921 -13.82604,-9.34394 -14.76768,-16.95316 -0.51584,-4.16847 0.48006,-4.6934 2.63898,-1.39099 3.71013,5.67527 19.89026,10.77891 27.587,8.70169 1.94618,-0.52524 5.06833,-2.08622 6.93809,-3.46883 1.86977,-1.3826 4.25631,-2.51383 5.30343,-2.51383 1.57141,0 1.79033,0.47868 1.25381,2.74144 -2.45322,10.34633 -17.81881,17.18366 -28.95363,12.88368 z m 83.59511,-9.04449 c -8.63336,-2.73658 -15.04264,-7.78739 -13.84647,-10.91164 0.76548,-1.99932 0.69944,-1.99825 6.88409,-0.11188 7.53516,2.29829 18.28009,2.06293 23.3133,-0.51066 5.93913,-3.03679 11.22035,-8.15405 13.83901,-13.40933 3.38114,-6.78548 5.12783,-5.67733 5.10995,3.2419 -0.0305,15.2094 -18.99663,26.86936 -35.29988,21.70161 z m -129.53645,-8.54775 c -7.12357,-1.69551 -13.2181,-8.69071 -15.16747,-17.40898 -2.67475,-11.96241 5.33468,-26.36098 16.13927,-29.01358 4.24254,-1.04157 4.37193,1.60367 0.37539,7.67447 -4.41555,6.70729 -6.09732,12.90103 -5.17564,19.06121 0.85978,5.74646 5.53149,12.22043 10.77728,14.93496 4.38454,2.26886 4.67002,3.41946 1.17853,4.74994 -2.85909,1.0895 -3.55746,1.08967 -8.12736,0.002 z m 180.93536,-11.02595 c -1.81802,-1.11093 -3.1263,-2.5672 -2.9073,-3.23616 0.21902,-0.66895 2.54203,-1.7551 5.16225,-2.41365 13.5542,-3.40666 19.28982,-15.6244 15.07529,-32.11268 -0.89471,-3.50039 -1.43346,-6.55808 -1.19721,-6.79487 1.01242,-1.01473 4.58301,2.01537 7.40291,6.28233 6.34292,9.59782 6.28294,21.41219 -0.15773,31.07122 -5.5805,8.36904 -16.14428,11.6242 -23.37821,7.20381 z m -99.14095,-6.94219 c -12.74626,-2.6702 -19.23555,-10.06095 -20.15947,-22.95992 -0.35722,-4.98722 -0.11871,-6.79789 1.02027,-7.7453 1.26271,-1.05035 1.83576,-0.37396 3.80676,4.4933 2.70881,6.68927 8.02544,12.99278 12.56527,14.89765 7.66982,3.21818 18.9587,0.79302 30.10778,-6.46797 3.45107,-2.24756 6.62284,-3.8708 7.04836,-3.60722 1.22465,0.75859 -0.74773,6.32177 -3.54415,9.9964 -6.71856,8.8285 -19.88028,13.69001 -30.84482,11.39306 z m -50.22796,-7.78346 c -5.64934,-5.87441 -7.3426,-11.1935 -6.78555,-21.31562 0.79837,-14.50693 9.53919,-26.86141 21.46242,-30.33546 5.83882,-1.70125 12.23425,-1.4053 14.74391,0.68226 1.25779,1.04625 0.39655,1.7018 -5.44985,4.14813 -12.86024,5.38117 -19.57693,14.02286 -20.72009,26.65843 -0.64591,7.13939 1.18219,15.90251 4.2683,20.4605 3.01407,4.45159 3.01189,4.49209 -0.24294,4.49209 -1.88666,0 -4.02025,-1.40466 -7.2762,-4.79033 z m 139.3596,-15.2521 c -1.55605,-4.4738 -4.88986,-8.71455 -8.19928,-10.4298 -1.62618,-0.84284 -6.73808,-1.7999 -11.35978,-2.12681 -5.11162,-0.36155 -8.39701,-1.02446 -8.38756,-1.69239 0.009,-0.60393 0.66397,-3.78964 1.45651,-7.07937 2.60144,-10.79833 1.58884,-16.17549 -4.58599,-24.35238 -2.11664,-2.80292 -3.84844,-5.58435 -3.84844,-6.18095 0,-1.78209 5.05089,-0.002 9.89921,3.48812 6.17383,4.44475 9.40084,11.0003 9.45455,19.20655 l 0.0415,6.3324 3.28192,0.005 c 7.68875,0.0128 14.78227,7.33243 16.61979,17.14954 1.26472,6.75686 -2.36005,11.46535 -4.37238,5.67963 z m -62.77406,-35.32492 c -8.26996,-6.25855 -15.69676,-7.67849 -25.86027,-4.94429 -8.95565,2.40926 -9.80735,1.85854 -5.34532,-3.45633 3.82045,-4.55068 9.81101,-7.23742 17.34585,-7.77957 7.7264,-0.55593 10.77662,0.7022 16.14715,6.66024 3.68073,4.08339 5.1249,7.48868 4.5144,10.64474 -0.53212,2.75086 -2.00168,2.50784 -6.80181,-1.12479 z M 425.38055,816.03891 c 12.71659,-2.6688 25.20054,-12.35706 30.76704,-23.87696 10.83644,-22.42609 2.73935,-54.3295 -17.17095,-67.65532 -15.99872,-10.70781 -36.9457,-8.6367 -52.08888,5.15022 -10.69069,9.73321 -14.96944,21.39308 -14.1752,38.62832 0.84303,18.29419 6.5505,30.16144 19.01353,39.53392 10.9851,8.26103 21.37106,10.79772 33.65446,8.21982 z m 1.24703,-35.23489 c -3.71322,-3.72166 -3.34836,-8.80604 0.94037,-13.10452 3.69712,-3.70552 6.8503,-4.27457 10.29319,-1.85759 2.78303,1.95374 4.58869,8.35422 3.30874,11.72839 -2.2085,5.82199 -10.18928,7.59665 -14.5423,3.23372 z m 81.53959,12.90513 c 9.11549,-2.64757 18.88095,-7.12604 24.09905,-11.0519 6.97407,-5.24697 7.11775,-25.42435 0.28377,-39.85366 -3.55096,-7.49752 -11.74985,-15.50312 -19.59079,-19.12893 -8.56662,-3.96138 -18.35817,-3.82559 -27.10618,0.3759 -7.51013,3.60695 -12.43601,7.38143 -17.39161,13.32638 -2.34056,2.80784 -3.22773,4.62719 -2.61928,5.37147 0.50603,0.61902 1.97026,4.48999 3.25382,8.60215 2.85227,9.13776 3.15354,25.92466 0.62991,35.09814 l -1.56531,5.68999 4.12176,1.4729 c 2.26697,0.8101 4.79314,1.69083 5.6137,1.95719 0.82057,0.26635 6.02958,0.51969 11.57559,0.56297 7.98208,0.0623 11.87849,-0.44261 18.69557,-2.4226 z m -8.83031,-14.66758 c -0.85158,-1.21857 -1.54833,-4.16897 -1.54833,-6.55645 0,-8.27531 8.69135,-13.25997 13.73608,-7.87789 4.30028,4.58785 3.37418,12.87731 -1.74548,15.62349 -3.44357,1.84713 -8.74206,1.24375 -10.44227,-1.18915 z M 304.9868,557.90199 c 20.25466,-6.83881 53.02194,-28.97572 80.6352,-54.47552 53.19088,-49.11974 100.98358,-122.56666 110.60692,-169.97861 2.67487,-13.17851 1.65632,-22.67748 -3.50532,-32.69007 -3.44245,-6.6777 -6.82507,-10.61196 -13.26759,-15.43134 -5.31572,-3.97645 -20.36781,-11.90717 -21.13667,-11.13657 -0.26011,0.2607 -1.16952,3.5348 -2.0209,7.27578 -1.6977,7.4597 -6.17276,13.31081 -10.18038,13.31081 -4.91991,0 -10.79917,-5.05486 -17.25575,-14.83612 l -3.54188,-5.36571 -0.60459,3.87038 c -1.31565,8.42237 -7.85824,26.62282 -11.57622,32.2032 -7.39823,11.10414 -11.77827,10.04627 -14.12171,-3.41066 -1.23206,-7.07488 -1.50638,-7.69377 -2.43034,-5.48288 -0.57285,1.37072 -4.59263,9.8941 -8.93285,18.94085 -8.20771,17.10808 -12.07696,22.92839 -15.24246,22.92839 -2.35749,0 -3.63707,-2.38825 -6.93938,-12.95185 l -2.64653,-8.46586 -1.75855,7.96742 c -2.41334,10.93412 -10.9772,37.01912 -13.71203,41.76598 -1.23326,2.14057 -3.04436,4.38357 -4.02465,4.98443 -2.48374,1.52237 -4.71119,-1.63638 -9.07128,-12.86394 -1.91628,-4.93459 -3.50359,-8.52338 -3.52736,-7.9751 -0.0238,0.54829 -1.39498,8.84737 -3.04715,18.44241 -4.44269,25.80101 -9.74631,41.86923 -13.81974,41.86923 -2.05873,0 -6.32352,-4.45795 -10.05688,-10.51239 l -2.42052,-3.92538 -1.25325,8.79211 c -0.68928,4.83564 -2.13572,16.27108 -3.21429,25.41206 -2.16784,18.37254 -3.37169,23.09973 -5.88274,23.09973 -1.76235,0 -9.1138,-11.2019 -10.79472,-16.44863 -0.87361,-2.72683 -1.10302,-2.19919 -2.60059,5.98132 -5.08885,27.79805 -6.65501,68.82902 -3.32366,87.07529 2.09331,11.46539 5.74534,19.57147 9.98482,22.16245 4.18567,2.55808 12.88149,2.50292 20.68304,-0.13121 z m -16.76736,-8.80946 c -5.65119,-3.57709 -6.77504,-7.04376 -6.66079,-20.54614 0.11681,-13.80335 2.37175,-23.85455 9.40324,-41.9142 7.94847,-20.41478 25.63642,-52.95191 39.26558,-72.22932 21.07876,-29.81431 54.55416,-63.9678 85.50444,-87.23643 25.61386,-19.25669 45.16676,-28.15127 59.82786,-27.21561 10.44749,0.66676 13.97022,5.9927 13.00505,19.66202 -0.74157,10.50256 -5.20608,23.58305 -14.56693,42.67934 -13.77923,28.10988 -29.80887,54.29486 -49.29302,80.52195 -27.07854,36.4497 -64.02771,73.52795 -91.5269,91.84668 -20.81301,13.86469 -37.42827,19.1982 -44.95853,14.43171 z"
       id="path216" />
  </g>
</svg>
