<svg width="400" height="150" viewBox="0 0 400 150" xmlns="http://www.w3.org/2000/svg">
  <defs>
    <linearGradient id="textGrad" x1="0%" y1="0%" x2="100%" y2="0%">
      <stop offset="0%" stop-color="#00FF66"/>
      <stop offset="100%" stop-color="#00E659"/>
    </linearGradient>
  </defs>
  
  <rect width="400" height="150" fill="#1e1e1e" rx="12"/>
  
  <!-- Character positioned left -->
  <g transform="translate(70,75)">
    <!-- Character body (black t-shirt) -->
    <ellipse cx="0" cy="30" rx="16" ry="22" fill="#000000"/>
    
    <!-- Character head -->
    <circle cx="0" cy="0" r="18" fill="#fdbcb4" stroke="#000000" stroke-width="1"/>
    
    <!-- Skull cap/hair (opened top of head) -->
    <path d="M -18 -5 Q -18 -18 0 -18 Q 18 -18 18 -5 Q 16 -10 12 -12 Q 8 -14 4 -15 Q 0 -16 -4 -15 Q -8 -14 -12 -12 Q -16 -10 -18 -5" fill="#000000"/>
    
    <!-- Hair spikes -->
    <path d="M -12 -12 L -16 -16 L -13 -14" fill="#000000"/>
    <path d="M -4 -15 L -5 -20 L -2 -17" fill="#000000"/>
    <path d="M 4 -15 L 5 -20 L 2 -17" fill="#000000"/>
    <path d="M 12 -12 L 16 -16 L 13 -14" fill="#000000"/>
    
    <!-- Eyes (wide, surprised) -->
    <circle cx="-5" cy="-5" r="3.5" fill="#ffffff" stroke="#000000" stroke-width="1"/>
    <circle cx="5" cy="-5" r="3.5" fill="#ffffff" stroke="#000000" stroke-width="1"/>
    <circle cx="-5" cy="-5" r="1.8" fill="#000000"/>
    <circle cx="5" cy="-5" r="1.8" fill="#000000"/>
    
    <!-- Mouth (open, surprised) -->
    <ellipse cx="0" cy="7" rx="2.5" ry="4" fill="#000000"/>
    
    <!-- Left arm holding brain -->
    <path d="M -16 20 Q -24 15 -30 10" stroke="#fdbcb4" stroke-width="5" fill="none" stroke-linecap="round"/>
    
    <!-- Right arm -->
    <path d="M 16 20 Q 24 15 28 20" stroke="#fdbcb4" stroke-width="5" fill="none" stroke-linecap="round"/>
    
    <!-- Brain in left hand -->
    <g transform="translate(-35,5)">
      <path d="M 0 5 Q -3 2 -2 -2 Q 0 -6 4 -5 Q 8 -6 10 -2 Q 11 2 8 5 Q 6 7 4 6 Q 2 7 0 5" fill="#fdbcb4" stroke="#000000" stroke-width="1"/>
      <!-- Brain wrinkles -->
      <path d="M 2 0 Q 4 -2 6 0" stroke="#000000" stroke-width="0.5" fill="none"/>
      <path d="M 1 2 Q 3 1 5 2" stroke="#000000" stroke-width="0.5" fill="none"/>
      <path d="M 3 -3 Q 5 -4 7 -3" stroke="#000000" stroke-width="0.5" fill="none"/>
    </g>
    
    <!-- "huh?" text on shirt -->
    <text x="0" y="33" font-family="Arial, sans-serif" font-size="7" font-weight="bold" text-anchor="middle" fill="#ffffff">huh?</text>
  </g>
  
  <!-- Text content -->
  <text x="260" y="50" font-family="Inter, Arial, sans-serif" font-size="24" font-weight="bold" text-anchor="middle" fill="url(#textGrad)">I KNOW NØTHING!</text>
  <text x="260" y="75" font-family="Inter, Arial, sans-serif" font-size="16" text-anchor="middle" fill="#e2e8f0">LABS</text>
  <text x="260" y="100" font-family="Inter, Arial, sans-serif" font-size="11" text-anchor="middle" fill="#cbd5e0">Documenting tools, workflows, and lessons learned</text>
  <text x="260" y="115" font-family="Inter, Arial, sans-serif" font-size="11" text-anchor="middle" fill="#cbd5e0">so others can skip the trial-and-error</text>
</svg>